<?xml version="1.0" encoding="iso-8859-1"?>
<!-- Generator: Adobe Illustrator 19.0.0, SVG Export Plug-In . SVG Version: 6.00 Build 0)  -->
<svg version="1.1" id="Layer_1" xmlns="http://www.w3.org/2000/svg" xmlns:xlink="http://www.w3.org/1999/xlink" x="0px" y="0px"
	 viewBox="0 0 480.001 480.001" style="enable-background:new 0 0 480.001 480.001;" xml:space="preserve">
<g transform="translate(0 -540.36)">
	<path style="fill:#EF4836;" d="M136.863,772.579h196.419l1.103,247.78l-98.99-93.518l-97.429,93.518L136.863,772.579z"/>
	<path style="fill:#C0392B;" d="M235.033,772.581l0.323,154.303l0.045-0.041l98.99,93.518l-1.104-247.78L235.033,772.581z"/>
	<path style="fill:#CB4637;" d="M137.133,833.07l0.045,10.057l15.545,28.352l28.91-3.883l28.057,24.617l25.566-13.395l-0.02-9.119
		l-21.088,11.047c-2.416,1.265-5.362,0.914-7.412-0.885l-24.506-21.502l-24.602,3.303c-2.703,0.364-5.352-0.974-6.664-3.365
		L137.133,833.07z"/>
	<g shape-rendering="auto" image-rendering="auto" color-rendering="auto" color-interpolation="sRGB">
		<path style="fill:#FFB61C;" d="M210.897,540.363c-1.788,0.053-3.479,0.83-4.684,2.152l-16.725,18.344l-32.592-0.719
			c-2.728-0.06-5.211,1.565-6.248,4.088l-9.441,22.957l-30.873,10.473c-2.583,0.876-4.36,3.251-4.473,5.977l-1.02,24.803
			l-25.43,20.4c-2.127,1.707-2.985,4.547-2.158,7.146l7.525,23.654l-16.918,27.867c-1.416,2.332-1.252,5.295,0.414,7.455
			l15.162,19.654l-6.367,31.973c-0.533,2.675,0.635,5.403,2.939,6.863l20.971,13.283l4.953,32.223
			c0.414,2.696,2.445,4.859,5.109,5.443l24.248,5.311l15.674,28.586c1.312,2.391,3.961,3.729,6.664,3.365l24.602-3.303
			l24.506,21.502c2.05,1.798,4.996,2.15,7.412,0.885l21.99-11.52l30.381,11.822c2.542,0.99,5.431,0.313,7.27-1.703l16.723-18.344
			l32.594,0.719c2.727,0.059,5.209-1.565,6.246-4.088l9.441-22.957l30.873-10.473c2.583-0.876,4.36-3.251,4.473-5.977l1.02-24.803
			l25.43-20.4c2.127-1.707,2.985-4.547,2.158-7.146l-7.525-23.654l16.92-27.869c1.415-2.332,1.25-5.294-0.416-7.453l-15.162-19.654
			l6.367-31.973c0.533-2.675-0.635-5.403-2.939-6.863l-20.971-13.283l-4.951-32.223c-0.414-2.696-2.445-4.859-5.109-5.443
			l-24.25-5.311l-15.674-28.586c-1.311-2.391-3.959-3.73-6.662-3.367l-24.604,3.305l-24.506-21.502
			c-1.169-1.026-2.664-1.605-4.219-1.637c-1.111-0.022-2.209,0.236-3.193,0.752l-21.988,11.52l-30.383-11.824
			C212.658,540.489,211.779,540.337,210.897,540.363L210.897,540.363z"/>
		<path style="fill:#F39C12;" d="M240,584.475c-69.734,0-126.453,56.719-126.453,126.453S170.266,837.381,240,837.381
			s126.453-56.719,126.453-126.453S309.734,584.475,240,584.475z"/>
		<path style="fill:#FCD116;" d="M240,602.069c60.226,0,108.859,48.634,108.859,108.859S300.226,819.788,240,819.788
			s-108.859-48.634-108.859-108.859S179.774,602.069,240,602.069z"/>
	</g>
	<path style="fill:#E9C31A;" d="M240,601.927c-60.198,0.001-108.999,48.801-108.999,109c0.001,60.198,48.801,108.999,108.999,109
		c60.199-0.001,108.999-48.801,108.999-109C348.999,650.728,300.198,601.928,240,601.927L240,601.927z M240,608.088
		c56.798-0.002,102.844,46.041,102.847,102.839c0.002,56.799-46.042,102.845-102.841,102.847c-0.002,0-0.004,0-0.006,0
		c-56.798-0.003-102.841-46.049-102.839-102.847C137.163,654.131,183.204,608.09,240,608.088z"/>
	<path style="fill:#A63A2E;" d="M333.619,847.253l-4.268,10.379c-1.037,2.523-3.519,4.147-6.246,4.088l-32.594-0.719l-16.723,18.344
		c-1.838,2.016-4.727,2.693-7.27,1.703l-30.381-11.822l-0.902,0.473l0.02,9.119l0.271-0.143l34.785,13.537l19.65-21.557
		l37.316,0.822l6.379-15.514L333.619,847.253L333.619,847.253z"/>
</g>
<g>
</g>
<g>
</g>
<g>
</g>
<g>
</g>
<g>
</g>
<g>
</g>
<g>
</g>
<g>
</g>
<g>
</g>
<g>
</g>
<g>
</g>
<g>
</g>
<g>
</g>
<g>
</g>
<g>
</g>
</svg>
