<svg id="Capa_1" enable-background="new 0 0 512 512" height="512" viewBox="0 0 512 512" width="512" xmlns="http://www.w3.org/2000/svg"><g id="Mail"><path d="m512 224v288h-512v-288l256 160z" fill="#fffa50"/><path d="m416 0v284.16l-160 99.84-160-99.84v-284.16z" fill="#fffa50"/><path d="m0 224 96-59.84v120z" fill="#ffce33"/><path d="m512 224-96 60.16v-120z" fill="#ffce33"/><path d="m256 384 160-99.84v163.84h-320v-163.84z" fill="#ffa65c"/><path d="m256 64c-61.76 0-112 50.24-112 112s50.24 112 112 112c24 0 46.721-7.68 64.961-21.119l-18.561-25.92c-13.121 9.6-29.121 15.039-46.4 15.039-44.16 0-80-35.84-80-80s35.84-80 80-80 80 35.84 80 80c0 .961 0 2.24-.32 3.199-1.6 7.361-8 12.801-15.68 12.801-8.961 0-16-7.039-16-16 0-26.561-21.439-48-48-48s-48 21.439-48 48 21.439 48 48 48c10.561 0 20.16-3.199 27.84-8.961 1.6-.959 2.881-2.238 4.16-3.52 8.32 7.68 19.52 12.48 31.68 12.48h.32c22.721 0 41.92-15.68 46.721-37.119 0-.961.318-1.602.318-2.561.641-2.559.961-5.438.961-8.319 0-61.76-50.24-112-112-112zm9.279 125.119c-2.559 1.92-5.76 2.881-9.279 2.881-8.961 0-16-7.039-16-16s7.039-16 16-16 16 7.039 16 16c0 5.439-2.561 10.24-6.721 13.119z" fill="#ffce33"/></g></svg>